<?xml version="1.0" encoding="utf-8"?>
<svg xmlns="http://www.w3.org/2000/svg" width="500" zoomAndPan="magnify" viewBox="0 0 375 374.999991" height="500" preserveAspectRatio="xMidYMid meet" version="1.0" style="background-color:transparent;" xmlns:bx="https://boxy-svg.com">
  <defs>
    <g/>
    <clipPath id="d717cdd59f">
      <path d="M 112.5 134 L 262 134 L 262 170 L 112.5 170 Z M 112.5 134 " clip-rule="nonzero"/>
    </clipPath>
    <clipPath id="d5427d74f0">
      <path d="M 112.5 147 L 262.5 147 L 262.5 182 L 112.5 182 Z M 112.5 147 " clip-rule="nonzero"/>
    </clipPath>
    <clipPath id="106a58fb65">
      <path d="M 113 162 L 262.5 162 L 262.5 198 L 113 198 Z M 113 162 " clip-rule="nonzero"/>
    </clipPath>
    <clipPath id="e792aaa226">
      <path d="M 163 239 L 200 239 L 200 256.21875 L 163 256.21875 Z M 163 239 " clip-rule="nonzero"/>
    </clipPath>
    <clipPath id="95abf283a8">
      <path d="M 65.765625 65.765625 L 309.515625 65.765625 L 309.515625 309.515625 L 65.765625 309.515625 Z M 65.765625 65.765625 " clip-rule="nonzero"/>
    </clipPath>
    <clipPath id="fafc1a783a">
      <path d="M 187.640625 309.515625 C 120.449219 309.515625 65.765625 254.851562 65.765625 187.640625 C 65.765625 120.429688 120.449219 65.765625 187.640625 65.765625 C 254.832031 65.765625 309.515625 120.449219 309.515625 187.640625 C 309.515625 254.832031 254.851562 309.515625 187.640625 309.515625 Z M 187.640625 69.554688 C 122.535156 69.554688 69.554688 122.535156 69.554688 187.640625 C 69.554688 252.746094 122.535156 305.726562 187.640625 305.726562 C 252.746094 305.726562 305.726562 252.746094 305.726562 187.640625 C 305.726562 122.53125 252.765625 69.554688 187.640625 69.554688 Z M 187.640625 69.554688 " clip-rule="nonzero"/>
    </clipPath>
    <linearGradient x1="9.539756" gradientTransform="matrix(1.895412, 0, 0, 1.895412, 65.765628, 65.765628)" y1="135.897042" x2="119.066446" gradientUnits="userSpaceOnUse" y2="-7.292301" id="c1fdd36487">
      <stop stop-opacity="1" stop-color="rgb(39.99939%, 17.599487%, 56.498718%)" offset="0"/>
      <stop stop-opacity="1" stop-color="rgb(39.99939%, 17.599487%, 56.498718%)" offset="0.125"/>
      <stop stop-opacity="1" stop-color="rgb(39.99939%, 17.599487%, 56.498718%)" offset="0.1563"/>
      <stop stop-opacity="1" stop-color="rgb(39.837646%, 17.747498%, 56.535339%)" offset="0.1719"/>
      <stop stop-opacity="1" stop-color="rgb(39.056396%, 18.460083%, 56.713867%)" offset="0.1758"/>
      <stop stop-opacity="1" stop-color="rgb(38.438416%, 19.026184%, 56.855774%)" offset="0.1797"/>
      <stop stop-opacity="1" stop-color="rgb(37.820435%, 19.590759%, 56.996155%)" offset="0.1836"/>
      <stop stop-opacity="1" stop-color="rgb(37.202454%, 20.15686%, 57.138062%)" offset="0.1875"/>
      <stop stop-opacity="1" stop-color="rgb(36.424255%, 20.866394%, 57.345581%)" offset="0.1914"/>
      <stop stop-opacity="1" stop-color="rgb(35.647583%, 21.575928%, 57.554626%)" offset="0.1953"/>
      <stop stop-opacity="1" stop-color="rgb(34.661865%, 22.473145%, 57.850647%)" offset="0.1992"/>
      <stop stop-opacity="1" stop-color="rgb(33.676147%, 23.371887%, 58.146667%)" offset="0.2031"/>
      <stop stop-opacity="1" stop-color="rgb(32.688904%, 24.27063%, 58.442688%)" offset="0.207"/>
      <stop stop-opacity="1" stop-color="rgb(31.703186%, 25.169373%, 58.738708%)" offset="0.2109"/>
      <stop stop-opacity="1" stop-color="rgb(30.717468%, 26.066589%, 59.033203%)" offset="0.2148"/>
      <stop stop-opacity="1" stop-color="rgb(29.73175%, 26.965332%, 59.329224%)" offset="0.2188"/>
      <stop stop-opacity="1" stop-color="rgb(28.744507%, 27.864075%, 59.625244%)" offset="0.2227"/>
      <stop stop-opacity="1" stop-color="rgb(27.758789%, 28.762817%, 59.921265%)" offset="0.2266"/>
      <stop stop-opacity="1" stop-color="rgb(26.509094%, 29.908752%, 60.289001%)" offset="0.2305"/>
      <stop stop-opacity="1" stop-color="rgb(25.259399%, 31.054688%, 60.658264%)" offset="0.2344"/>
      <stop stop-opacity="1" stop-color="rgb(23.968506%, 32.23877%, 61.038208%)" offset="0.2383"/>
      <stop stop-opacity="1" stop-color="rgb(22.679138%, 33.422852%, 61.418152%)" offset="0.2422"/>
      <stop stop-opacity="1" stop-color="rgb(21.389771%, 34.606934%, 61.798096%)" offset="0.2461"/>
      <stop stop-opacity="1" stop-color="rgb(20.100403%, 35.791016%, 62.17804%)" offset="0.25"/>
      <stop stop-opacity="1" stop-color="rgb(18.809509%, 36.973572%, 62.557983%)" offset="0.2539"/>
      <stop stop-opacity="1" stop-color="rgb(17.520142%, 38.157654%, 62.937927%)" offset="0.2578"/>
      <stop stop-opacity="1" stop-color="rgb(16.229248%, 39.341736%, 63.317871%)" offset="0.2617"/>
      <stop stop-opacity="1" stop-color="rgb(14.93988%, 40.525818%, 63.697815%)" offset="0.2656"/>
      <stop stop-opacity="1" stop-color="rgb(13.598633%, 41.743469%, 64.085388%)" offset="0.2695"/>
      <stop stop-opacity="1" stop-color="rgb(12.257385%, 42.961121%, 64.472961%)" offset="0.2734"/>
      <stop stop-opacity="1" stop-color="rgb(10.720825%, 44.306946%, 64.889526%)" offset="0.2773"/>
      <stop stop-opacity="1" stop-color="rgb(9.185791%, 45.652771%, 65.307617%)" offset="0.2813"/>
      <stop stop-opacity="1" stop-color="rgb(7.649231%, 46.998596%, 65.724182%)" offset="0.2852"/>
      <stop stop-opacity="1" stop-color="rgb(6.112671%, 48.344421%, 66.140747%)" offset="0.2891"/>
      <stop stop-opacity="1" stop-color="rgb(4.576111%, 49.688721%, 66.557312%)" offset="0.293"/>
      <stop stop-opacity="1" stop-color="rgb(3.041077%, 51.034546%, 66.973877%)" offset="0.2969"/>
      <stop stop-opacity="1" stop-color="rgb(1.519775%, 52.36969%, 67.370605%)" offset="0.3008"/>
      <stop stop-opacity="1" stop-color="rgb(0%, 53.70636%, 67.76886%)" offset="0.3047"/>
      <stop stop-opacity="1" stop-color="rgb(0%, 54.051208%, 66.297913%)" offset="0.3086"/>
      <stop stop-opacity="1" stop-color="rgb(0%, 54.396057%, 64.826965%)" offset="0.3125"/>
      <stop stop-opacity="1" stop-color="rgb(0%, 54.740906%, 63.356018%)" offset="0.3164"/>
      <stop stop-opacity="1" stop-color="rgb(0%, 55.085754%, 61.885071%)" offset="0.3203"/>
      <stop stop-opacity="1" stop-color="rgb(0%, 55.430603%, 60.414124%)" offset="0.3242"/>
      <stop stop-opacity="1" stop-color="rgb(0%, 55.775452%, 58.943176%)" offset="0.3281"/>
      <stop stop-opacity="1" stop-color="rgb(0%, 56.118774%, 57.472229%)" offset="0.332"/>
      <stop stop-opacity="1" stop-color="rgb(0%, 56.463623%, 56.001282%)" offset="0.3359"/>
      <stop stop-opacity="1" stop-color="rgb(0%, 56.808472%, 54.530334%)" offset="0.3398"/>
      <stop stop-opacity="1" stop-color="rgb(0%, 57.15332%, 53.059387%)" offset="0.3438"/>
      <stop stop-opacity="1" stop-color="rgb(0%, 57.498169%, 51.58844%)" offset="0.3477"/>
      <stop stop-opacity="1" stop-color="rgb(0%, 57.843018%, 50.117493%)" offset="0.3516"/>
      <stop stop-opacity="1" stop-color="rgb(0%, 58.187866%, 48.646545%)" offset="0.3555"/>
      <stop stop-opacity="1" stop-color="rgb(0%, 58.532715%, 47.175598%)" offset="0.3594"/>
      <stop stop-opacity="1" stop-color="rgb(0%, 58.877563%, 45.704651%)" offset="0.3633"/>
      <stop stop-opacity="1" stop-color="rgb(0%, 59.222412%, 44.233704%)" offset="0.3672"/>
      <stop stop-opacity="1" stop-color="rgb(0%, 59.567261%, 42.762756%)" offset="0.3711"/>
      <stop stop-opacity="1" stop-color="rgb(0%, 59.912109%, 41.291809%)" offset="0.375"/>
      <stop stop-opacity="1" stop-color="rgb(0%, 60.256958%, 39.820862%)" offset="0.3789"/>
      <stop stop-opacity="1" stop-color="rgb(0%, 60.601807%, 38.349915%)" offset="0.3828"/>
      <stop stop-opacity="1" stop-color="rgb(0%, 60.946655%, 36.878967%)" offset="0.3867"/>
      <stop stop-opacity="1" stop-color="rgb(0%, 61.291504%, 35.40802%)" offset="0.3906"/>
      <stop stop-opacity="1" stop-color="rgb(0%, 61.634827%, 33.937073%)" offset="0.3945"/>
      <stop stop-opacity="1" stop-color="rgb(0%, 61.979675%, 32.466125%)" offset="0.3984"/>
      <stop stop-opacity="1" stop-color="rgb(0%, 62.324524%, 30.995178%)" offset="0.4023"/>
      <stop stop-opacity="1" stop-color="rgb(0%, 62.669373%, 29.524231%)" offset="0.4063"/>
      <stop stop-opacity="1" stop-color="rgb(3.633118%, 63.43689%, 28.405762%)" offset="0.4102"/>
      <stop stop-opacity="1" stop-color="rgb(7.267761%, 64.205933%, 27.287292%)" offset="0.4141"/>
      <stop stop-opacity="1" stop-color="rgb(11.064148%, 64.993286%, 26.182556%)" offset="0.418"/>
      <stop stop-opacity="1" stop-color="rgb(14.860535%, 65.78064%, 25.079346%)" offset="0.4219"/>
      <stop stop-opacity="1" stop-color="rgb(18.655396%, 66.566467%, 23.976135%)" offset="0.4258"/>
      <stop stop-opacity="1" stop-color="rgb(22.451782%, 67.353821%, 22.872925%)" offset="0.4297"/>
      <stop stop-opacity="1" stop-color="rgb(26.246643%, 68.141174%, 21.769714%)" offset="0.4336"/>
      <stop stop-opacity="1" stop-color="rgb(30.04303%, 68.928528%, 20.666504%)" offset="0.4375"/>
      <stop stop-opacity="1" stop-color="rgb(33.839417%, 69.714355%, 19.563293%)" offset="0.4414"/>
      <stop stop-opacity="1" stop-color="rgb(37.635803%, 70.501709%, 18.460083%)" offset="0.4453"/>
      <stop stop-opacity="1" stop-color="rgb(41.430664%, 71.289062%, 17.356873%)" offset="0.4492"/>
      <stop stop-opacity="1" stop-color="rgb(45.227051%, 72.076416%, 16.253662%)" offset="0.4531"/>
      <stop stop-opacity="1" stop-color="rgb(49.021912%, 72.862244%, 15.150452%)" offset="0.457"/>
      <stop stop-opacity="1" stop-color="rgb(52.818298%, 73.649597%, 14.047241%)" offset="0.4609"/>
      <stop stop-opacity="1" stop-color="rgb(56.614685%, 74.435425%, 12.944031%)" offset="0.4648"/>
      <stop stop-opacity="1" stop-color="rgb(60.411072%, 75.222778%, 11.84082%)" offset="0.4688"/>
      <stop stop-opacity="1" stop-color="rgb(64.205933%, 76.010132%, 10.73761%)" offset="0.4727"/>
      <stop stop-opacity="1" stop-color="rgb(68.002319%, 76.797485%, 9.634399%)" offset="0.4766"/>
      <stop stop-opacity="1" stop-color="rgb(71.79718%, 77.583313%, 8.531189%)" offset="0.4805"/>
      <stop stop-opacity="1" stop-color="rgb(75.593567%, 78.370667%, 7.427979%)" offset="0.4844"/>
      <stop stop-opacity="1" stop-color="rgb(79.389954%, 79.15802%, 6.324768%)" offset="0.4883"/>
      <stop stop-opacity="1" stop-color="rgb(83.18634%, 79.945374%, 5.221558%)" offset="0.4922"/>
      <stop stop-opacity="1" stop-color="rgb(86.981201%, 80.731201%, 4.118347%)" offset="0.4961"/>
      <stop stop-opacity="1" stop-color="rgb(90.777588%, 81.518555%, 3.015137%)" offset="0.5"/>
      <stop stop-opacity="1" stop-color="rgb(94.572449%, 82.305908%, 1.9104%)" offset="0.5039"/>
      <stop stop-opacity="1" stop-color="rgb(98.368835%, 83.093262%, 0.80719%)" offset="0.5078"/>
      <stop stop-opacity="1" stop-color="rgb(98.025513%, 82.00531%, 0.787354%)" offset="0.5117"/>
      <stop stop-opacity="1" stop-color="rgb(97.68219%, 80.917358%, 0.769043%)" offset="0.5156"/>
      <stop stop-opacity="1" stop-color="rgb(97.322083%, 79.821777%, 0.753784%)" offset="0.5195"/>
      <stop stop-opacity="1" stop-color="rgb(96.961975%, 78.726196%, 0.738525%)" offset="0.5234"/>
      <stop stop-opacity="1" stop-color="rgb(96.601868%, 77.630615%, 0.723267%)" offset="0.5273"/>
      <stop stop-opacity="1" stop-color="rgb(96.24176%, 76.535034%, 0.708008%)" offset="0.5312"/>
      <stop stop-opacity="1" stop-color="rgb(95.881653%, 75.439453%, 0.692749%)" offset="0.5352"/>
      <stop stop-opacity="1" stop-color="rgb(95.521545%, 74.343872%, 0.67749%)" offset="0.5391"/>
      <stop stop-opacity="1" stop-color="rgb(95.161438%, 73.248291%, 0.660706%)" offset="0.543"/>
      <stop stop-opacity="1" stop-color="rgb(94.801331%, 72.15271%, 0.645447%)" offset="0.5469"/>
      <stop stop-opacity="1" stop-color="rgb(94.441223%, 71.057129%, 0.630188%)" offset="0.5508"/>
      <stop stop-opacity="1" stop-color="rgb(94.081116%, 69.961548%, 0.614929%)" offset="0.5547"/>
      <stop stop-opacity="1" stop-color="rgb(93.721008%, 68.865967%, 0.59967%)" offset="0.5586"/>
      <stop stop-opacity="1" stop-color="rgb(93.360901%, 67.770386%, 0.584412%)" offset="0.5625"/>
      <stop stop-opacity="1" stop-color="rgb(93.000793%, 66.674805%, 0.569153%)" offset="0.5664"/>
      <stop stop-opacity="1" stop-color="rgb(92.640686%, 65.579224%, 0.553894%)" offset="0.5703"/>
      <stop stop-opacity="1" stop-color="rgb(92.280579%, 64.483643%, 0.538635%)" offset="0.5742"/>
      <stop stop-opacity="1" stop-color="rgb(91.920471%, 63.388062%, 0.523376%)" offset="0.5781"/>
      <stop stop-opacity="1" stop-color="rgb(91.560364%, 62.29248%, 0.508118%)" offset="0.582"/>
      <stop stop-opacity="1" stop-color="rgb(91.200256%, 61.196899%, 0.492859%)" offset="0.5859"/>
      <stop stop-opacity="1" stop-color="rgb(90.840149%, 60.101318%, 0.4776%)" offset="0.5898"/>
      <stop stop-opacity="1" stop-color="rgb(90.480042%, 59.005737%, 0.462341%)" offset="0.5938"/>
      <stop stop-opacity="1" stop-color="rgb(90.119934%, 57.910156%, 0.447083%)" offset="0.5977"/>
      <stop stop-opacity="1" stop-color="rgb(89.759827%, 56.814575%, 0.431824%)" offset="0.6016"/>
      <stop stop-opacity="1" stop-color="rgb(89.399719%, 55.718994%, 0.416565%)" offset="0.6055"/>
      <stop stop-opacity="1" stop-color="rgb(89.039612%, 54.623413%, 0.401306%)" offset="0.6094"/>
      <stop stop-opacity="1" stop-color="rgb(88.948059%, 53.744507%, 0.500488%)" offset="0.6133"/>
      <stop stop-opacity="1" stop-color="rgb(88.858032%, 52.867126%, 0.59967%)" offset="0.6172"/>
      <stop stop-opacity="1" stop-color="rgb(88.783264%, 52.000427%, 0.706482%)" offset="0.6211"/>
      <stop stop-opacity="1" stop-color="rgb(88.708496%, 51.135254%, 0.813293%)" offset="0.625"/>
      <stop stop-opacity="1" stop-color="rgb(88.633728%, 50.270081%, 0.918579%)" offset="0.6289"/>
      <stop stop-opacity="1" stop-color="rgb(88.560486%, 49.404907%, 1.025391%)" offset="0.6328"/>
      <stop stop-opacity="1" stop-color="rgb(88.485718%, 48.539734%, 1.130676%)" offset="0.6367"/>
      <stop stop-opacity="1" stop-color="rgb(88.41095%, 47.674561%, 1.237488%)" offset="0.6406"/>
      <stop stop-opacity="1" stop-color="rgb(88.336182%, 46.809387%, 1.344299%)" offset="0.6445"/>
      <stop stop-opacity="1" stop-color="rgb(88.261414%, 45.944214%, 1.451111%)" offset="0.6484"/>
      <stop stop-opacity="1" stop-color="rgb(88.186646%, 45.079041%, 1.556396%)" offset="0.6523"/>
      <stop stop-opacity="1" stop-color="rgb(88.111877%, 44.213867%, 1.663208%)" offset="0.6563"/>
      <stop stop-opacity="1" stop-color="rgb(88.037109%, 43.347168%, 1.77002%)" offset="0.6602"/>
      <stop stop-opacity="1" stop-color="rgb(87.962341%, 42.481995%, 1.876831%)" offset="0.6641"/>
      <stop stop-opacity="1" stop-color="rgb(87.887573%, 41.616821%, 1.982117%)" offset="0.668"/>
      <stop stop-opacity="1" stop-color="rgb(87.814331%, 40.751648%, 2.088928%)" offset="0.6719"/>
      <stop stop-opacity="1" stop-color="rgb(87.739563%, 39.886475%, 2.19574%)" offset="0.6758"/>
      <stop stop-opacity="1" stop-color="rgb(87.664795%, 39.021301%, 2.302551%)" offset="0.6797"/>
      <stop stop-opacity="1" stop-color="rgb(87.590027%, 38.156128%, 2.407837%)" offset="0.6836"/>
      <stop stop-opacity="1" stop-color="rgb(87.515259%, 37.290955%, 2.514648%)" offset="0.6875"/>
      <stop stop-opacity="1" stop-color="rgb(87.440491%, 36.424255%, 2.62146%)" offset="0.6914"/>
      <stop stop-opacity="1" stop-color="rgb(87.365723%, 35.559082%, 2.728271%)" offset="0.6953"/>
      <stop stop-opacity="1" stop-color="rgb(87.290955%, 34.693909%, 2.833557%)" offset="0.6992"/>
      <stop stop-opacity="1" stop-color="rgb(87.216187%, 33.828735%, 2.940369%)" offset="0.7031"/>
      <stop stop-opacity="1" stop-color="rgb(87.141418%, 32.963562%, 3.045654%)" offset="0.707"/>
      <stop stop-opacity="1" stop-color="rgb(87.068176%, 32.098389%, 3.152466%)" offset="0.7109"/>
      <stop stop-opacity="1" stop-color="rgb(86.993408%, 31.233215%, 3.259277%)" offset="0.7148"/>
      <stop stop-opacity="1" stop-color="rgb(86.91864%, 30.368042%, 3.366089%)" offset="0.7188"/>
      <stop stop-opacity="1" stop-color="rgb(86.843872%, 29.502869%, 3.471375%)" offset="0.7227"/>
      <stop stop-opacity="1" stop-color="rgb(86.769104%, 28.637695%, 3.578186%)" offset="0.7266"/>
      <stop stop-opacity="1" stop-color="rgb(86.694336%, 27.770996%, 3.684998%)" offset="0.7305"/>
      <stop stop-opacity="1" stop-color="rgb(86.619568%, 26.905823%, 3.791809%)" offset="0.7344"/>
      <stop stop-opacity="1" stop-color="rgb(86.5448%, 26.040649%, 3.897095%)" offset="0.7383"/>
      <stop stop-opacity="1" stop-color="rgb(86.470032%, 25.175476%, 4.003906%)" offset="0.7422"/>
      <stop stop-opacity="1" stop-color="rgb(86.395264%, 24.310303%, 4.110718%)" offset="0.7461"/>
      <stop stop-opacity="1" stop-color="rgb(86.320496%, 23.445129%, 4.217529%)" offset="0.75"/>
      <stop stop-opacity="1" stop-color="rgb(86.245728%, 22.579956%, 4.322815%)" offset="0.7539"/>
      <stop stop-opacity="1" stop-color="rgb(86.172485%, 21.714783%, 4.429626%)" offset="0.7578"/>
      <stop stop-opacity="1" stop-color="rgb(86.097717%, 20.849609%, 4.534912%)" offset="0.7617"/>
      <stop stop-opacity="1" stop-color="rgb(86.022949%, 19.984436%, 4.641724%)" offset="0.7656"/>
      <stop stop-opacity="1" stop-color="rgb(85.948181%, 19.117737%, 4.748535%)" offset="0.7695"/>
      <stop stop-opacity="1" stop-color="rgb(85.873413%, 18.252563%, 4.855347%)" offset="0.7734"/>
      <stop stop-opacity="1" stop-color="rgb(85.798645%, 17.38739%, 4.960632%)" offset="0.7773"/>
      <stop stop-opacity="1" stop-color="rgb(85.723877%, 16.522217%, 5.067444%)" offset="0.7812"/>
      <stop stop-opacity="1" stop-color="rgb(85.649109%, 15.657043%, 5.174255%)" offset="0.7852"/>
      <stop stop-opacity="1" stop-color="rgb(85.574341%, 14.79187%, 5.281067%)" offset="0.7891"/>
      <stop stop-opacity="1" stop-color="rgb(85.499573%, 13.926697%, 5.386353%)" offset="0.793"/>
      <stop stop-opacity="1" stop-color="rgb(85.426331%, 13.061523%, 5.493164%)" offset="0.7969"/>
      <stop stop-opacity="1" stop-color="rgb(85.351562%, 12.19635%, 5.599976%)" offset="0.8008"/>
      <stop stop-opacity="1" stop-color="rgb(85.276794%, 11.331177%, 5.706787%)" offset="0.8047"/>
      <stop stop-opacity="1" stop-color="rgb(85.202026%, 10.464478%, 5.812073%)" offset="0.8086"/>
      <stop stop-opacity="1" stop-color="rgb(85.127258%, 9.599304%, 5.918884%)" offset="0.8125"/>
      <stop stop-opacity="1" stop-color="rgb(85.05249%, 8.734131%, 6.025696%)" offset="0.8164"/>
      <stop stop-opacity="1" stop-color="rgb(84.977722%, 7.868958%, 6.132507%)" offset="0.8203"/>
      <stop stop-opacity="1" stop-color="rgb(84.902954%, 7.003784%, 6.237793%)" offset="0.8242"/>
      <stop stop-opacity="1" stop-color="rgb(84.828186%, 6.138611%, 6.344604%)" offset="0.8281"/>
      <stop stop-opacity="1" stop-color="rgb(84.753418%, 5.273438%, 6.44989%)" offset="0.832"/>
      <stop stop-opacity="1" stop-color="rgb(84.680176%, 4.408264%, 6.556702%)" offset="0.8359"/>
      <stop stop-opacity="1" stop-color="rgb(84.605408%, 3.541565%, 6.663513%)" offset="0.8398"/>
      <stop stop-opacity="1" stop-color="rgb(84.53064%, 2.676392%, 6.770325%)" offset="0.8438"/>
      <stop stop-opacity="1" stop-color="rgb(84.455872%, 1.811218%, 6.87561%)" offset="0.8477"/>
      <stop stop-opacity="1" stop-color="rgb(84.381104%, 0.946045%, 6.982422%)" offset="0.8516"/>
      <stop stop-opacity="1" stop-color="rgb(84.339905%, 0.473022%, 7.040405%)" offset="0.8555"/>
      <stop stop-opacity="1" stop-color="rgb(84.298706%, 0%, 7.099915%)" offset="0.8594"/>
      <stop stop-opacity="1" stop-color="rgb(84.298706%, 0%, 7.099915%)" offset="0.875"/>
      <stop stop-opacity="1" stop-color="rgb(84.298706%, 0%, 7.099915%)" offset="1"/>
    </linearGradient>
    <bx:export>
      <bx:file format="svg"/>
    </bx:export>
  </defs>
  <rect x="-37.5" width="450" fill="none" y="-37.499999" height="449.999989" fill-opacity="1"/>
  <rect x="-37.5" width="450" fill="none" y="-37.499999" height="449.999989" fill-opacity="1"/>
  <path fill="#f59121" d="M 254.453125 134.257812 C 238.269531 147.742188 218.222656 154.308594 198.671875 152.242188 C 182.800781 150.5625 167.554688 143.5 151.667969 142 C 138.636719 140.765625 125.378906 143.453125 113.3125 149.582031 C 114.242188 145.277344 115.878906 141.265625 118.230469 137.542969 C 130.105469 131.234375 143.230469 128.417969 156.152344 129.6875 C 165.105469 130.566406 173.882812 133.304688 182.683594 135.632812 C 184.488281 137.886719 186.09375 140.273438 187.5 142.792969 C 188.5 140.996094 189.605469 139.265625 190.8125 137.601562 C 195.535156 138.601562 200.277344 139.28125 205.078125 139.308594 C 218.5 139.367188 231.714844 134.175781 243.378906 126.097656 C 243.753906 125.832031 244.128906 125.566406 244.503906 125.296875 C 248.332031 127.714844 251.648438 130.699219 254.453125 134.257812 Z M 254.453125 134.257812 " fill-opacity="1" fill-rule="nonzero"/>
  <path fill="#ee1e25" d="M 182.695312 135.632812 C 173.894531 133.304688 165.117188 130.574219 156.164062 129.6875 C 143.246094 128.417969 130.113281 131.234375 118.238281 137.542969 C 125.222656 126.445312 137.886719 119.03125 152.351562 119.03125 C 164.503906 119.03125 175.382812 126.488281 182.695312 135.632812 Z M 182.695312 135.632812 " fill-opacity="1" fill-rule="nonzero"/>
  <g clip-path="url(#d717cdd59f)">
    <path fill="#fedb0e" d="M 261.046875 147.050781 C 244.710938 158.535156 227.480469 168.449219 208.84375 169.082031 C 196.460938 169.5 184.257812 165.746094 172.304688 161.777344 C 160.355469 157.808594 148.308594 153.582031 135.929688 153.019531 C 127.996094 152.660156 119.820312 153.972656 112.5 157.5625 L 112.5 157.378906 C 112.5 154.75 112.773438 152.144531 113.324219 149.574219 C 125.390625 143.449219 138.640625 140.757812 151.679688 141.992188 C 167.554688 143.5 182.8125 150.5625 198.671875 152.242188 C 218.210938 154.308594 238.261719 147.742188 254.445312 134.257812 C 257.476562 138.09375 259.675781 142.359375 261.046875 147.050781 Z M 261.046875 147.050781 " fill-opacity="1" fill-rule="nonzero"/>
  </g>
  <g clip-path="url(#d5427d74f0)">
    <path fill="#029246" d="M 262.5 157.378906 C 262.5 159.582031 262.375 161.78125 262.128906 163.972656 C 252.191406 169.746094 241.855469 174.449219 231.152344 177.539062 C 214.957031 182.207031 197.878906 183.085938 181.683594 178.441406 C 168.1875 174.578125 155.519531 166.992188 141.921875 163.703125 C 132.382812 161.410156 121.808594 161.695312 113.078125 166.355469 C 112.703125 163.4375 112.507812 160.507812 112.5 157.566406 C 119.820312 153.976562 127.996094 152.664062 135.929688 153.023438 C 148.308594 153.585938 160.351562 157.816406 172.304688 161.777344 C 184.261719 165.742188 196.460938 169.503906 208.84375 169.085938 C 227.480469 168.453125 244.710938 158.539062 261.046875 147.054688 C 262.019531 150.425781 262.503906 153.867188 262.5 157.378906 Z M 262.5 157.378906 " fill-opacity="1" fill-rule="nonzero"/>
  </g>
  <g clip-path="url(#106a58fb65)">
    <path fill="#232262" d="M 262.136719 163.980469 C 261.621094 168.496094 260.652344 172.914062 259.238281 177.230469 C 236.171875 181.824219 213.851562 200.628906 190.257812 197.390625 C 179.996094 195.984375 170.460938 190.46875 161.15625 185.019531 C 151.851562 179.570312 142.328125 174.03125 132.078125 172.558594 C 126.28125 171.730469 120.148438 172.4375 114.726562 174.957031 C 114.003906 172.121094 113.457031 169.253906 113.078125 166.355469 C 121.800781 161.695312 132.382812 161.410156 141.925781 163.710938 C 155.523438 166.996094 168.191406 174.585938 181.6875 178.449219 C 197.886719 183.09375 214.96875 182.214844 231.15625 177.546875 C 241.863281 174.457031 252.203125 169.753906 262.136719 163.980469 Z M 262.136719 163.980469 " fill-opacity="1" fill-rule="nonzero"/>
  </g>
  <path fill="#804096" d="M 259.238281 177.234375 C 257.070312 183.914062 253.945312 190.359375 250.195312 196.496094 C 243.472656 196.578125 236.554688 198.292969 230.101562 200.546875 C 217.105469 205.074219 204.019531 211.527344 190.570312 209.914062 C 180.242188 208.675781 170.738281 202.769531 161.488281 197.023438 C 152.238281 191.28125 142.664062 185.488281 132.320312 184.507812 C 127.589844 184.0625 123.046875 184.792969 118.691406 186.695312 C 117.070312 182.882812 115.75 178.972656 114.726562 174.957031 C 120.148438 172.433594 126.28125 171.726562 132.078125 172.558594 C 142.328125 174.03125 151.863281 179.570312 161.171875 185.019531 C 170.480469 190.46875 179.996094 195.996094 190.257812 197.390625 C 213.851562 200.628906 236.171875 181.824219 259.238281 177.234375 Z M 259.238281 177.234375 " fill-opacity="1" fill-rule="nonzero"/>
  <path fill="#61cdf4" d="M 250.195312 196.496094 C 246.339844 202.730469 242 208.617188 237.1875 214.148438 C 221.128906 214.121094 204.632812 221.769531 188.628906 218.355469 C 179.757812 216.464844 171.628906 211.28125 163.484375 206.605469 C 155.335938 201.925781 146.730469 197.609375 137.71875 197.65625 C 133.582031 197.695312 129.714844 198.726562 126.105469 200.753906 C 123.253906 196.269531 120.78125 191.582031 118.695312 186.695312 C 123.046875 184.789062 127.589844 184.0625 132.320312 184.503906 C 142.667969 185.488281 152.242188 191.28125 161.488281 197.023438 C 170.738281 202.761719 180.246094 208.671875 190.574219 209.910156 C 204.023438 211.523438 217.105469 205.074219 230.105469 200.542969 C 236.554688 198.292969 243.472656 196.578125 250.195312 196.496094 Z M 250.195312 196.496094 " fill-opacity="1" fill-rule="nonzero"/>
  <path fill="none" d="M 237.1875 214.148438 C 234.042969 217.8125 230.746094 221.296875 227.433594 224.582031 C 223.179688 225.1875 218.988281 226.480469 214.8125 227.671875 C 209.050781 229.320312 203.136719 230.800781 197.246094 230.042969 C 182.738281 228.179688 171.296875 213.335938 156.964844 210.011719 C 149.828125 208.355469 142.316406 209.984375 135.898438 214.109375 C 132.335938 209.875 129.074219 205.421875 126.105469 200.753906 C 129.714844 198.726562 133.582031 197.695312 137.71875 197.65625 C 146.726562 197.609375 155.335938 201.917969 163.484375 206.605469 C 171.632812 211.289062 179.757812 216.457031 188.628906 218.355469 C 204.632812 221.769531 221.128906 214.121094 237.1875 214.148438 Z M 237.1875 214.148438 " fill-opacity="1" fill-rule="nonzero"/>
  <path fill="#f7aab6" d="M 227.433594 224.582031 C 225.019531 226.976562 222.589844 229.257812 220.1875 231.417969 C 217.027344 232.042969 213.886719 232.921875 210.769531 233.777344 C 204.5 235.503906 198.109375 237.160156 191.703125 236.523438 C 180.75 235.4375 170.75 227.738281 159.789062 226.972656 C 156.277344 226.746094 152.863281 227.226562 149.550781 228.410156 C 144.707031 223.925781 140.15625 219.15625 135.902344 214.105469 C 142.320312 209.980469 149.835938 208.351562 156.972656 210.007812 C 171.304688 213.332031 182.746094 228.179688 197.253906 230.039062 C 203.140625 230.796875 209.054688 229.316406 214.820312 227.667969 C 218.988281 226.480469 223.1875 225.1875 227.433594 224.582031 Z M 227.433594 224.582031 " fill-opacity="1" fill-rule="nonzero"/>
  <path fill="#000000" d="M 220.1875 231.417969 C 213.71875 237.230469 206.960938 242.6875 199.917969 247.789062 C 198.59375 247.757812 197.28125 247.613281 195.980469 247.355469 C 189.796875 246.121094 184.207031 242.140625 178.128906 240.277344 C 175.730469 239.558594 173.28125 239.183594 170.773438 239.160156 C 168.269531 239.132812 165.8125 239.457031 163.398438 240.128906 C 158.96875 236.710938 154.25 232.792969 149.539062 228.410156 C 152.851562 227.226562 156.265625 226.746094 159.777344 226.972656 C 170.75 227.730469 180.75 235.4375 191.703125 236.523438 C 198.109375 237.160156 204.5 235.503906 210.769531 233.777344 C 213.886719 232.921875 217.019531 232.042969 220.1875 231.417969 Z M 220.1875 231.417969 " fill-opacity="1" fill-rule="nonzero"/>
  <g clip-path="url(#e792aaa226)">
    <path fill="#775221" d="M 199.917969 247.789062 C 192.507812 253.160156 187.511719 256.15625 187.511719 256.15625 L 187.511719 256.183594 L 187.46875 256.117188 C 187.46875 256.117188 176.746094 250.417969 163.414062 240.140625 C 165.824219 239.46875 168.285156 239.144531 170.789062 239.167969 C 173.292969 239.195312 175.746094 239.566406 178.144531 240.289062 C 184.222656 242.152344 189.808594 246.132812 195.992188 247.367188 C 197.289062 247.621094 198.597656 247.761719 199.917969 247.789062 Z M 199.917969 247.789062 " fill-opacity="1" fill-rule="nonzero"/>
  </g>
  <path fill="#ee1e25" d="M 244.515625 125.304688 C 244.140625 125.574219 243.769531 125.839844 243.390625 126.105469 C 231.722656 134.1875 218.503906 139.375 205.09375 139.316406 C 200.292969 139.292969 195.546875 138.609375 190.828125 137.609375 C 198.09375 127.578125 209.648438 119.03125 222.664062 119.03125 C 226.527344 119.019531 230.320312 119.546875 234.035156 120.613281 C 237.75 121.679688 241.242188 123.246094 244.515625 125.304688 Z M 244.515625 125.304688 " fill-opacity="1" fill-rule="nonzero"/>
  <g clip-path="url(#95abf283a8)">
    <g clip-path="url(#fafc1a783a)">
      <path fill="url(#c1fdd36487)" d="M 65.765625 65.765625 L 65.765625 309.515625 L 309.515625 309.515625 L 309.515625 65.765625 Z M 65.765625 65.765625 " fill-rule="nonzero"/>
    </g>
  </g>
  <path stroke-linecap="butt" transform="matrix(0.519212, 0.54122, -0.54122, 0.519212, 126.021265, 222.260611)" fill="none" stroke-linejoin="miter" d="M 20.668155 40.992593 C 18.531646 40.992731 16.757014 40.502801 15.333137 39.51935 C 13.912865 38.532142 12.910999 37.116314 12.334752 35.264351 C 10.403153 35.020799 8.710076 34.378147 7.252066 33.347518 C 5.790451 32.320647 4.643992 30.859934 3.812995 28.980105 C 2.981999 27.100276 2.566415 24.825044 2.566243 22.154408 C 2.564175 19.214905 3.061984 16.754952 4.059822 14.781914 C 5.057661 12.808875 6.423281 11.340229 8.153076 10.379735 C 9.890236 9.419089 11.86577 8.939735 14.094406 8.94137 C 16.319285 8.939398 18.299959 9.417685 20.032824 10.379988 C 21.765688 11.342291 23.133223 12.805784 24.12837 14.785348 C 25.123364 16.757547 25.620015 19.211596 25.622083 22.151098 C 25.620767 26.169978 24.715583 29.235135 22.899169 31.346723 C 21.082601 33.450946 18.596198 34.696048 15.44702 35.067148 L 15.340594 35.441405 C 15.765947 36.412426 16.444153 37.142446 17.386335 37.634918 C 18.332276 38.130996 19.43503 38.373331 20.702268 38.3765 C 21.346857 38.374173 21.949339 38.295364 22.513166 38.12895 L 22.864566 38.199013 L 23.299859 40.536458 C 22.598865 40.838331 21.721681 40.99283 20.668155 40.992593 Z M 14.091303 32.575674 C 16.761939 32.575503 18.814748 31.737233 20.246277 30.071986 C 21.674047 28.403134 22.389111 25.761858 22.387863 22.151916 C 22.390374 18.545579 21.672584 15.908254 20.245463 14.236031 C 18.814735 12.567565 16.764054 11.733418 14.093418 11.73359 C 8.564284 11.734148 5.796258 15.206331 5.800463 22.153591 C 5.797303 29.101003 8.56217 32.576233 14.091303 32.575674 Z M 14.091303 32.575674 " stroke="#000000" stroke-width="2.249975" stroke-opacity="1" stroke-miterlimit="4"/>
  <path stroke-linecap="butt" transform="matrix(0.61909, 0.423352, -0.423352, 0.61909, 138.314439, 235.216449)" fill="none" stroke-linejoin="miter" d="M 9.57692 35.369813 C 7.385377 35.366755 5.75482 34.790788 4.68367 33.630374 C 3.61252 32.46996 3.073842 30.768755 3.077816 28.532417 L 3.074383 15.61889 L 5.937621 15.616919 L 5.93881 28.462575 C 5.937367 31.403863 7.321321 32.874075 10.086371 32.87615 C 11.844449 32.872761 13.233231 32.301651 14.251137 31.151281 C 15.271983 30.00521 15.783081 28.141388 15.780131 25.562755 L 15.781356 15.617892 L 18.644594 15.615921 L 18.643406 35.00001 L 15.937628 35.001569 L 15.939323 31.959154 L 15.569904 31.871052 C 14.901975 33.053412 14.103361 33.93394 13.171122 34.508336 C 12.238882 35.082732 11.041795 35.371324 9.57692 35.369813 Z M 9.57692 35.369813 " stroke="#000000" stroke-width="2.249975" stroke-opacity="1" stroke-miterlimit="4"/>
  <path stroke-linecap="butt" transform="matrix(0.683481, 0.308794, -0.308794, 0.683481, 149.527305, 243.129697)" fill="none" stroke-linejoin="miter" d="M 18.470598 25.96814 L 5.148691 25.968782 C 5.22867 28.321613 5.797161 30.047956 6.844669 31.152099 C 7.890034 32.251496 9.332355 32.800059 11.157394 32.804223 C 12.539762 32.802635 13.651989 32.557322 14.498821 32.066137 C 15.338763 31.572351 16.00089 30.798841 16.485203 29.745607 L 16.85116 29.746011 L 18.716789 30.852021 C 18.153215 32.261117 17.256711 33.363412 16.017784 34.163193 C 14.781002 34.96772 13.161512 35.367915 11.161457 35.368525 C 9.287268 35.369421 7.674704 35.000646 6.323767 34.2622 C 4.97972 33.526355 3.942162 32.406286 3.217983 30.904594 C 2.489057 29.405046 2.128636 27.544692 2.127686 25.316183 C 2.127965 23.115694 2.511096 21.256605 3.274477 19.745806 C 4.044748 18.23761 5.093909 17.106353 6.4215 16.363672 C 7.753838 15.618847 9.271968 15.247301 10.980635 15.246889 C 13.467764 15.249115 15.405451 15.945364 16.800129 17.349876 C 18.192662 18.749642 18.896564 20.826303 18.909689 23.575113 C 18.906791 24.656601 18.885311 25.380709 18.837901 25.756473 Z M 16.082021 23.578145 C 16.03026 21.515472 15.576338 20.017414 14.706474 19.078766 C 13.8435 18.142721 12.601012 17.669615 10.985443 17.673688 C 9.281522 17.671956 7.952818 18.146523 6.983405 19.08744 C 6.020882 20.030959 5.428228 21.527491 5.217079 23.577495 Z M 16.082021 23.578145 " stroke="#000000" stroke-width="2.249975" stroke-opacity="1" stroke-miterlimit="4"/>
  <path stroke-linecap="butt" transform="matrix(0.725849, 0.188794, -0.188794, 0.725849, 161.093711, 248.608313)" fill="none" stroke-linejoin="miter" d="M 18.470543 25.969404 L 5.150684 25.96815 C 5.229845 28.320859 5.798303 30.051191 6.843354 31.151687 C 7.893445 32.250873 9.328698 32.803201 11.157882 32.801011 C 12.541163 32.801787 13.655546 32.554987 14.497304 32.066963 C 15.342791 31.572588 16.00245 30.798267 16.482632 29.747731 L 16.852723 29.742957 L 18.717701 30.850836 C 18.152465 32.257156 17.255923 33.362172 16.016682 34.163465 C 14.783793 34.968488 13.160511 35.36918 11.158227 35.367959 C 9.286095 35.370556 7.671914 34.999308 6.328385 34.261673 C 4.979815 33.525348 3.940913 32.407108 3.216718 30.905641 C 2.487482 29.405484 2.126186 27.540545 2.124059 25.318485 C 2.127177 23.116588 2.509996 21.257223 3.278868 19.744121 C 4.04401 18.23737 5.095704 17.108144 6.425179 16.364105 C 7.754655 15.620065 9.272084 15.246906 10.98382 15.248356 C 13.464873 15.248826 15.406835 15.949204 16.798314 17.347071 C 18.196144 18.748668 18.898013 20.826395 18.908961 23.578942 C 18.909063 24.655241 18.883122 25.383127 18.839908 25.754936 Z M 16.077979 23.578001 C 16.031913 21.518056 15.576793 20.016563 14.708889 19.079874 C 13.840986 18.143185 12.59981 17.674917 10.98405 17.67003 C 9.283707 17.670998 7.954206 18.145962 6.982843 19.087464 C 6.017833 20.032695 5.431938 21.525113 5.2177 23.577421 Z M 16.077979 23.578001 " stroke="#000000" stroke-width="2.249975" stroke-opacity="1" stroke-miterlimit="4"/>
  <path stroke-linecap="butt" transform="matrix(0.745632, 0.0808296, -0.0808296, 0.745632, 173.812054, 251.933098)" fill="none" stroke-linejoin="miter" d="M 3.375872 35.002163 L 3.375377 15.618482 L 6.09937 15.616566 L 6.09872 18.655167 L 6.464857 18.746448 C 7.368011 16.542526 9.066546 15.441599 11.565639 15.443107 C 12.88565 15.441461 13.875449 15.679926 14.535596 16.163681 L 13.792329 18.586019 L 13.443593 18.655257 C 12.718125 18.293838 11.923154 18.112835 11.053503 18.112809 C 9.508031 18.112702 8.318763 18.692164 7.485698 19.851197 C 6.652633 21.010229 6.238651 22.893942 6.237452 25.49254 L 6.236177 35.001186 Z M 3.375872 35.002163 " stroke="#000000" stroke-width="2.249975" stroke-opacity="1" stroke-miterlimit="4"/>
  <path stroke-linecap="butt" transform="matrix(0.749722, -0.0204202, 0.0204202, 0.749722, 182.803572, 253.130988)" fill="none" stroke-linejoin="miter" d="M 8.838601 35.370779 C 7.619452 35.368835 6.493207 35.207902 5.454662 34.887841 C 4.421464 34.562714 3.542514 34.121953 2.828365 33.560634 C 2.114359 32.994109 1.610452 32.365573 1.31707 31.659406 L 3.006152 29.90266 L 3.37609 29.902315 C 4.00643 30.862542 4.768246 31.586678 5.656333 32.07458 C 6.549626 32.562624 7.611125 32.805157 8.840828 32.802179 C 10.268375 32.804589 11.354467 32.526766 12.099104 31.968708 C 12.843741 31.41065 13.213983 30.633985 13.215036 29.638853 C 13.214915 28.87815 12.987231 28.246717 12.537049 27.749901 C 12.086867 27.253085 11.357201 26.878913 10.353114 26.632733 L 7.082237 25.824627 C 5.337748 25.407184 4.06386 24.736834 3.260291 23.823992 C 2.456722 22.91115 2.055079 21.780003 2.055363 20.430552 C 2.057976 19.37815 2.327777 18.463282 2.864907 17.680741 C 3.401896 16.903407 4.178905 16.304549 5.190872 15.878818 C 6.207903 15.458437 7.412041 15.246351 8.803143 15.247769 C 10.585009 15.249409 11.990272 15.496095 13.013583 15.992891 C 14.036753 16.494893 14.835865 17.188783 15.41092 18.07456 L 13.794342 19.656132 L 13.44523 19.657044 C 12.823844 18.941944 12.144864 18.428475 11.413638 18.111573 C 10.682412 17.794672 9.811423 17.635482 8.805737 17.639351 C 7.529317 17.635847 6.548771 17.864443 5.869305 18.325281 C 5.189981 18.780912 4.848891 19.443746 4.851383 20.308718 C 4.850796 21.095452 5.088893 21.727169 5.570739 22.209217 C 6.052726 22.686058 6.886237 23.073479 8.081825 23.366557 L 11.301489 24.142006 C 12.984069 24.536922 14.206034 25.200647 14.957114 26.12769 C 15.703129 27.049386 16.077889 28.211062 16.081536 29.607512 C 16.08186 30.743359 15.809791 31.741529 15.27025 32.612579 C 14.73085 33.478422 13.920475 34.154526 12.828711 34.640605 C 11.736946 35.126685 10.407004 35.366605 8.838601 35.370779 Z M 8.838601 35.370779 " stroke="#000000" stroke-width="2.249975" stroke-opacity="1" stroke-miterlimit="4"/>
  <path stroke-linecap="butt" transform="matrix(0.736169, -0.143372, 0.143372, 0.736169, 193.633703, 253.187093)" fill="none" stroke-linejoin="miter" d="M 11.125237 35.368053 C 9.294791 35.367081 7.703473 34.982879 6.352278 34.210335 C 5.001083 33.43779 3.955474 32.294959 3.224682 30.788944 C 2.492894 29.288042 2.127179 27.460469 2.125546 25.316451 C 2.123913 23.172433 2.490575 21.344227 3.225534 19.831832 C 3.954384 18.323554 4.99968 17.179357 6.354317 16.408471 C 7.704838 15.631478 9.29738 15.24652 11.122713 15.246496 C 12.953159 15.247468 14.543481 15.636782 15.894676 16.409326 C 17.245872 17.181871 18.29148 18.324702 19.021277 19.835829 C 19.756185 21.347952 20.1219 23.175525 20.123534 25.319543 C 20.120055 27.462565 19.754388 29.285659 19.020425 30.792942 C 18.292571 32.296108 17.248271 33.435192 15.892637 34.21119 C 14.543112 34.983071 12.95057 35.368029 11.125237 35.368053 Z M 11.125575 32.80523 C 13.057136 32.804669 14.534144 32.195576 15.562705 30.973834 C 16.585158 29.756208 17.10067 27.872092 17.099016 25.319493 C 17.100349 22.751558 16.588235 20.85833 15.562674 19.63981 C 14.537113 18.42129 13.058053 17.814867 11.12138 17.814432 C 9.189818 17.814992 7.707698 18.423089 6.678142 19.649944 C 5.648585 20.876799 5.133073 22.760915 5.133731 25.318626 C 5.130272 27.870228 5.648494 29.759339 6.680164 30.973743 C 7.710837 32.193258 9.188901 32.804794 11.125575 32.80523 Z M 11.125575 32.80523 " stroke="#000000" stroke-width="2.249975" stroke-opacity="1" stroke-miterlimit="4"/>
  <path stroke-linecap="butt" transform="matrix(0.698075, -0.27421, 0.27421, 0.698075, 207.226061, 250.801887)" stroke-linejoin="miter" d="M 9.575586 35.370143 C 7.38877 35.367292 5.753524 34.786507 4.686296 33.628653 C 3.614221 32.468895 3.073634 30.76808 3.074231 28.530017 L 3.077147 15.616186 L 5.941943 15.616757 L 5.93764 28.462894 C 5.9414 31.402137 7.322008 32.873345 10.086216 32.873574 C 11.842629 32.875231 13.231807 32.301762 14.253749 31.153169 C 15.270845 30.002671 15.779597 28.137684 15.778103 25.563055 L 15.780105 15.614608 L 18.644902 15.615179 L 18.646416 34.999431 L 15.938303 34.998853 L 15.939732 31.960926 L 15.571652 31.872299 C 14.900993 33.05256 14.10082 33.935735 13.170092 34.510222 C 12.241269 35.079862 11.041831 35.369734 9.575586 35.370143 Z M 9.575586 35.370143 " stroke="#000000" stroke-width="2.249975" stroke-opacity="1" stroke-miterlimit="4" style=""/>
  <path stroke-linecap="butt" transform="matrix(0.648491, -0.376775, 0.376775, 0.648491, 220.317016, 245.643953)" fill="none" stroke-linejoin="miter" d="M 3.372875 34.999977 L 3.375872 15.617778 L 6.099551 15.616036 L 6.097721 18.65689 L 6.467907 18.745473 C 7.369463 16.540589 9.067369 15.442911 11.562356 15.440817 C 12.888017 15.440009 13.874062 15.681605 14.53473 16.161833 L 13.794391 18.58688 L 13.446975 18.656092 C 12.718278 18.292954 11.919791 18.11214 11.051515 18.113652 C 9.504281 18.112221 8.317221 18.693516 7.488446 19.850415 C 6.657055 21.011817 6.237815 22.894568 6.240463 25.492277 L 6.23865 35.002486 Z M 3.372875 34.999977 " stroke="#000000" stroke-width="2.249975" stroke-opacity="1" stroke-miterlimit="4"/>
  <path stroke-linecap="butt" transform="matrix(0.587868, -0.465738, 0.465738, 0.587868, 228.198242, 241.410263)" fill="none" stroke-linejoin="miter" d="M 11.123149 35.371314 C 9.410091 35.369679 7.87821 34.98 6.52019 34.203124 C 5.161322 33.418932 4.090306 32.271405 3.303059 30.757308 C 2.519047 29.239129 2.127333 27.427074 2.123834 25.317907 C 2.125957 23.193259 2.519991 21.379103 3.30424 19.860805 C 4.08849 18.342508 5.160838 17.198641 6.519587 16.414571 C 7.879185 15.637818 9.413047 15.244984 11.126105 15.246618 C 13.172656 15.246671 14.804584 15.635876 16.021042 16.406916 C 17.230184 17.178804 18.106251 18.211751 18.64516 19.502523 L 16.694751 20.907594 L 16.342543 20.907638 C 15.814443 19.838063 15.138042 19.056327 14.313337 18.56243 C 13.487784 18.061216 12.421039 17.814118 11.123653 17.816206 C 9.92955 17.813736 8.883204 18.094447 7.977299 18.659187 C 7.074629 19.219844 6.375015 20.06098 5.879308 21.18991 C 5.382752 22.311523 5.130609 23.686576 5.134278 25.317454 C 5.128935 26.934547 5.383499 28.299062 5.884186 29.420012 C 6.39219 30.540114 7.090858 31.386004 7.98666 31.949518 C 8.88331 32.520348 9.928263 32.80334 11.125601 32.801727 C 12.471818 32.805101 13.585552 32.498042 14.471735 31.891098 C 15.353835 31.28092 16.050429 30.317786 16.555049 29.009863 L 16.92189 29.008122 L 18.803681 30.113573 C 18.298947 31.740356 17.398909 33.02738 16.105953 33.963246 C 14.812996 34.899111 13.150984 35.369828 11.123149 35.371314 Z M 11.123149 35.371314 " stroke="#000000" stroke-width="2.249975" stroke-opacity="1" stroke-miterlimit="4"/>
  <path stroke-linecap="butt" transform="matrix(0.502235, -0.55701, 0.55701, 0.502235, 238.01265, 233.947367)" fill="none" stroke-linejoin="miter" d="M 18.468817 25.970046 L 5.148745 25.967177 C 5.22988 28.320481 5.793197 30.049672 6.842564 31.151262 C 7.89193 32.252852 9.331023 32.806679 11.160223 32.805387 C 12.539574 32.802959 13.655062 32.554558 14.498951 32.067157 C 15.34322 31.572401 16.002574 30.802563 16.48513 29.743313 L 16.853684 29.74762 L 18.714098 30.854272 C 18.150949 32.259693 17.253041 33.363846 16.016886 34.162861 C 14.78035 34.969232 13.16289 35.368689 11.156769 35.368208 C 9.283434 35.367218 7.676109 35.000143 6.323953 34.262736 C 4.979152 33.525708 3.94177 32.406299 3.215296 30.908376 C 2.489202 29.403097 2.124364 27.544034 2.128901 25.316857 C 2.128428 23.115234 2.508436 21.25781 3.276279 19.744966 C 4.047611 18.235989 5.094157 17.110021 6.419788 16.363574 C 7.752775 15.617507 9.272707 15.249884 10.983833 15.249862 C 13.465739 15.249132 15.406301 15.946899 16.80165 17.346651 C 18.193132 18.74989 18.897292 20.821951 18.906016 23.577166 C 18.909327 24.654165 18.886382 25.383157 18.837559 25.756785 Z M 16.081111 23.578598 C 16.032764 21.518323 15.575729 20.015894 14.709628 19.078667 C 13.843526 18.141439 12.599237 17.671442 10.98025 17.672541 C 9.283836 17.673324 7.95408 18.142975 6.983245 19.08847 C 6.016278 20.030477 5.429985 21.526895 5.217009 23.577345 Z M 16.081111 23.578598 " stroke="#000000" stroke-width="2.249975" stroke-opacity="1" stroke-miterlimit="4"/>
  <g fill="#e40303" fill-opacity="1">
    <g transform="translate(107.078567, 240.433025)">
      <g>
        <path d="M 7.484375 14.296875 C 6.378906 13.140625 5.722656 11.921875 5.515625 10.640625 C 5.316406 9.367188 5.566406 8.09375 6.265625 6.8125 C 5.398438 5.644531 4.863281 4.394531 4.65625 3.0625 C 4.457031 1.726562 4.648438 0.351562 5.234375 -1.0625 C 5.816406 -2.488281 6.832031 -3.894531 8.28125 -5.28125 C 9.875 -6.8125 11.460938 -7.816406 13.046875 -8.296875 C 14.640625 -8.785156 16.144531 -8.8125 17.5625 -8.375 C 18.976562 -7.9375 20.269531 -7.109375 21.4375 -5.890625 C 22.582031 -4.691406 23.347656 -3.375 23.734375 -1.9375 C 24.117188 -0.507812 24.03125 0.984375 23.46875 2.546875 C 22.914062 4.117188 21.84375 5.671875 20.25 7.203125 C 18.070312 9.296875 15.941406 10.394531 13.859375 10.5 C 11.785156 10.601562 9.832031 9.898438 8 8.390625 L 7.734375 8.546875 C 7.421875 9.265625 7.375 10.007812 7.59375 10.78125 C 7.820312 11.550781 8.265625 12.273438 8.921875 12.953125 C 9.253906 13.296875 9.613281 13.582031 10 13.8125 L 10.140625 14.046875 L 9.109375 15.484375 C 8.566406 15.265625 8.023438 14.867188 7.484375 14.296875 Z M 8.640625 6.390625 C 10.023438 7.828125 11.539062 8.5 13.1875 8.40625 C 14.832031 8.3125 16.628906 7.328125 18.578125 5.453125 C 20.535156 3.578125 21.59375 1.816406 21.75 0.171875 C 21.914062 -1.460938 21.304688 -3 19.921875 -4.4375 C 17.035156 -7.4375 13.710938 -7.132812 9.953125 -3.53125 C 6.191406 0.0820312 5.753906 3.390625 8.640625 6.390625 Z M 8.640625 6.390625 "/>
      </g>
    </g>
  </g>
  <g fill="#ff8c00" fill-opacity="1">
    <g transform="translate(123.497113, 256.884612)">
      <g>
        <path d="M 5.78125 4.296875 C 4.414062 3.359375 3.644531 2.304688 3.46875 1.140625 C 3.300781 -0.0234375 3.695312 -1.304688 4.65625 -2.703125 L 10.125 -10.6875 L 11.890625 -9.484375 L 6.4375 -1.53125 C 5.195312 0.289062 5.4375 1.785156 7.15625 2.953125 C 8.238281 3.703125 9.335938 3.9375 10.453125 3.65625 C 11.578125 3.382812 12.6875 2.445312 13.78125 0.84375 L 18 -5.3125 L 19.765625 -4.109375 L 11.546875 7.890625 L 9.859375 6.75 L 11.140625 4.859375 L 10.96875 4.65625 C 10.050781 5.101562 9.179688 5.304688 8.359375 5.265625 C 7.535156 5.234375 6.675781 4.910156 5.78125 4.296875 Z M 5.78125 4.296875 "/>
      </g>
    </g>
  </g>
  <g fill="#ffed00" fill-opacity="1">
    <g transform="translate(138.719528, 267.051534)">
      <g>
        <path d="M 15.421875 -0.484375 L 6.3125 -4.59375 C 5.644531 -2.957031 5.492188 -1.597656 5.859375 -0.515625 C 6.234375 0.554688 7.046875 1.378906 8.296875 1.953125 C 9.242188 2.367188 10.082031 2.539062 10.8125 2.46875 C 11.539062 2.40625 12.234375 2.082031 12.890625 1.5 L 13.140625 1.609375 L 14.078125 2.953125 C 13.253906 3.734375 12.296875 4.207031 11.203125 4.375 C 10.117188 4.539062 8.890625 4.316406 7.515625 3.703125 C 6.234375 3.117188 5.25 2.363281 4.5625 1.4375 C 3.875 0.519531 3.507812 -0.5625 3.46875 -1.8125 C 3.4375 -3.0625 3.757812 -4.445312 4.4375 -5.96875 C 5.125 -7.476562 5.960938 -8.625 6.953125 -9.40625 C 7.941406 -10.195312 9.003906 -10.644531 10.140625 -10.75 C 11.273438 -10.851562 12.425781 -10.640625 13.59375 -10.109375 C 15.289062 -9.335938 16.40625 -8.257812 16.9375 -6.875 C 17.46875 -5.5 17.304688 -3.859375 16.453125 -1.953125 C 16.117188 -1.222656 15.882812 -0.738281 15.75 -0.5 Z M 14.53125 -2.828125 C 15.132812 -4.253906 15.285156 -5.421875 14.984375 -6.328125 C 14.679688 -7.242188 13.972656 -7.953125 12.859375 -8.453125 C 11.703125 -8.972656 10.644531 -9.054688 9.6875 -8.703125 C 8.738281 -8.359375 7.878906 -7.519531 7.109375 -6.1875 Z M 14.53125 -2.828125 "/>
      </g>
    </g>
  </g>
  <g fill="#008026" fill-opacity="1">
    <g transform="translate(154.485907, 274.013025)">
      <g>
        <path d="M 15.109375 -3.078125 L 5.4375 -5.59375 C 5.050781 -3.851562 5.132812 -2.484375 5.6875 -1.484375 C 6.238281 -0.492188 7.179688 0.171875 8.515625 0.515625 C 9.515625 0.773438 10.367188 0.804688 11.078125 0.609375 C 11.785156 0.421875 12.410156 -0.015625 12.953125 -0.703125 L 13.21875 -0.625 L 14.375 0.515625 C 13.695312 1.429688 12.832031 2.0625 11.78125 2.40625 C 10.726562 2.757812 9.476562 2.75 8.03125 2.375 C 6.664062 2.019531 5.5625 1.445312 4.71875 0.65625 C 3.882812 -0.132812 3.347656 -1.140625 3.109375 -2.359375 C 2.867188 -3.585938 2.957031 -5.007812 3.375 -6.625 C 3.789062 -8.226562 4.421875 -9.503906 5.265625 -10.453125 C 6.109375 -11.398438 7.082031 -12.015625 8.1875 -12.296875 C 9.289062 -12.585938 10.460938 -12.570312 11.703125 -12.25 C 13.503906 -11.78125 14.78125 -10.910156 15.53125 -9.640625 C 16.28125 -8.367188 16.398438 -6.722656 15.890625 -4.703125 C 15.691406 -3.929688 15.539062 -3.414062 15.4375 -3.15625 Z M 13.828125 -5.25 C 14.179688 -6.757812 14.128906 -7.9375 13.671875 -8.78125 C 13.222656 -9.625 12.410156 -10.195312 11.234375 -10.5 C 10.003906 -10.820312 8.945312 -10.734375 8.0625 -10.234375 C 7.1875 -9.734375 6.484375 -8.753906 5.953125 -7.296875 Z M 13.828125 -5.25 "/>
      </g>
    </g>
  </g>
  <g fill="#004cff" fill-opacity="1">
    <g transform="translate(170.983018, 278.030204)">
      <g>
        <path d="M 2.515625 0.265625 L 4.078125 -14.203125 L 6.109375 -13.96875 L 5.875 -11.6875 L 6.140625 -11.578125 C 6.984375 -13.171875 8.335938 -13.863281 10.203125 -13.65625 C 11.191406 -13.550781 11.914062 -13.296875 12.375 -12.890625 L 11.609375 -11.125 L 11.34375 -11.09375 C 10.832031 -11.425781 10.253906 -11.628906 9.609375 -11.703125 C 8.453125 -11.828125 7.515625 -11.488281 6.796875 -10.6875 C 6.085938 -9.894531 5.628906 -8.523438 5.421875 -6.578125 L 4.65625 0.5 Z M 2.515625 0.265625 "/>
      </g>
    </g>
  </g>
  <g fill="#732982" fill-opacity="1">
    <g transform="translate(183.51828, 279.371255)">
      <g>
        <path d="M 6.625 0.09375 C 5.71875 0.125 4.867188 0.03125 4.078125 -0.1875 C 3.296875 -0.414062 2.628906 -0.734375 2.078125 -1.140625 C 1.535156 -1.546875 1.148438 -2.007812 0.921875 -2.53125 L 2.140625 -3.890625 L 2.421875 -3.890625 C 2.921875 -3.191406 3.507812 -2.664062 4.1875 -2.3125 C 4.863281 -1.957031 5.660156 -1.796875 6.578125 -1.828125 C 7.648438 -1.847656 8.460938 -2.078125 9.015625 -2.515625 C 9.566406 -2.953125 9.832031 -3.539062 9.8125 -4.28125 C 9.800781 -4.851562 9.617188 -5.320312 9.265625 -5.6875 C 8.921875 -6.0625 8.363281 -6.332031 7.59375 -6.5 L 5.125 -7.015625 C 3.800781 -7.304688 2.832031 -7.785156 2.21875 -8.453125 C 1.601562 -9.117188 1.28125 -9.957031 1.25 -10.96875 C 1.226562 -11.757812 1.410156 -12.453125 1.796875 -13.046875 C 2.179688 -13.648438 2.75 -14.117188 3.5 -14.453125 C 4.25 -14.785156 5.148438 -14.96875 6.203125 -15 C 7.535156 -15.03125 8.59375 -14.867188 9.375 -14.515625 C 10.15625 -14.171875 10.769531 -13.671875 11.21875 -13.015625 L 10.03125 -11.796875 L 9.765625 -11.796875 C 9.296875 -12.304688 8.78125 -12.671875 8.21875 -12.890625 C 7.65625 -13.117188 7 -13.226562 6.25 -13.21875 C 5.289062 -13.1875 4.5625 -12.988281 4.0625 -12.625 C 3.5625 -12.269531 3.320312 -11.765625 3.34375 -11.109375 C 3.351562 -10.523438 3.539062 -10.054688 3.90625 -9.703125 C 4.28125 -9.359375 4.921875 -9.09375 5.828125 -8.90625 L 8.265625 -8.375 C 9.535156 -8.113281 10.457031 -7.640625 11.03125 -6.953125 C 11.613281 -6.273438 11.921875 -5.414062 11.953125 -4.375 C 11.972656 -3.519531 11.789062 -2.757812 11.40625 -2.09375 C 11.019531 -1.4375 10.421875 -0.914062 9.609375 -0.53125 C 8.796875 -0.144531 7.800781 0.0625 6.625 0.09375 Z M 6.625 0.09375 "/>
      </g>
    </g>
  </g>
  <g fill="#73d7ee" fill-opacity="1">
    <g transform="translate(198.651711, 278.953001)">
      <g>
        <path d="M 8.234375 -1.3125 C 6.890625 -1.050781 5.664062 -1.109375 4.5625 -1.484375 C 3.457031 -1.867188 2.523438 -2.5625 1.765625 -3.5625 C 1.015625 -4.5625 0.484375 -5.847656 0.171875 -7.421875 C -0.128906 -9.003906 -0.117188 -10.40625 0.203125 -11.625 C 0.523438 -12.851562 1.128906 -13.847656 2.015625 -14.609375 C 2.898438 -15.367188 4.015625 -15.878906 5.359375 -16.140625 C 6.710938 -16.398438 7.941406 -16.34375 9.046875 -15.96875 C 10.148438 -15.601562 11.078125 -14.914062 11.828125 -13.90625 C 12.585938 -12.894531 13.117188 -11.597656 13.421875 -10.015625 C 13.734375 -8.441406 13.726562 -7.046875 13.40625 -5.828125 C 13.082031 -4.617188 12.476562 -3.628906 11.59375 -2.859375 C 10.707031 -2.085938 9.585938 -1.570312 8.234375 -1.3125 Z M 7.875 -3.203125 C 9.300781 -3.484375 10.300781 -4.144531 10.875 -5.1875 C 11.457031 -6.238281 11.566406 -7.703125 11.203125 -9.578125 C 10.835938 -11.472656 10.1875 -12.796875 9.25 -13.546875 C 8.320312 -14.296875 7.144531 -14.53125 5.71875 -14.25 C 4.300781 -13.976562 3.296875 -13.316406 2.703125 -12.265625 C 2.117188 -11.210938 2.007812 -9.742188 2.375 -7.859375 C 2.738281 -5.984375 3.390625 -4.671875 4.328125 -3.921875 C 5.273438 -3.171875 6.457031 -2.929688 7.875 -3.203125 Z M 7.875 -3.203125 "/>
      </g>
    </g>
  </g>
  <g fill="none" fill-opacity="1">
    <g transform="translate(216.8234, 275.234518)">
      <g>
        <path d="M 6.796875 -2.359375 C 5.265625 -1.753906 3.96875 -1.710938 2.90625 -2.234375 C 1.84375 -2.753906 1 -3.796875 0.375 -5.359375 L -3.15625 -14.390625 L -1.171875 -15.171875 L 2.34375 -6.1875 C 3.15625 -4.132812 4.523438 -3.488281 6.453125 -4.25 C 7.691406 -4.726562 8.507812 -5.507812 8.90625 -6.59375 C 9.300781 -7.675781 9.144531 -9.117188 8.4375 -10.921875 L 5.71875 -17.875 L 7.703125 -18.65625 L 13.015625 -5.109375 L 11.125 -4.375 L 10.296875 -6.5 L 10.015625 -6.453125 C 9.867188 -5.441406 9.550781 -4.609375 9.0625 -3.953125 C 8.570312 -3.296875 7.816406 -2.765625 6.796875 -2.359375 Z M 6.796875 -2.359375 "/>
      </g>
    </g>
  </g>
  <g fill="#ffafc7" fill-opacity="1">
    <g transform="translate(233.504136, 268.341142)">
      <g>
        <path d="M 2.1875 -1.265625 L -5.125 -13.84375 L -3.359375 -14.875 L -2.203125 -12.90625 L -1.921875 -12.96875 C -2.179688 -14.738281 -1.5 -16.097656 0.125 -17.046875 C 0.988281 -17.546875 1.722656 -17.769531 2.328125 -17.71875 L 2.75 -15.84375 L 2.5625 -15.671875 C 1.957031 -15.628906 1.375 -15.445312 0.8125 -15.125 C -0.195312 -14.53125 -0.753906 -13.703125 -0.859375 -12.640625 C -0.960938 -11.585938 -0.519531 -10.210938 0.46875 -8.515625 L 4.046875 -2.359375 Z M 2.1875 -1.265625 "/>
      </g>
    </g>
  </g>
  <g fill="#000000" fill-opacity="1">
    <g transform="translate(244.499065, 261.985625)">
      <g>
        <path d="M 6.71875 -4.96875 C 5.707031 -4.164062 4.617188 -3.675781 3.453125 -3.5 C 2.296875 -3.332031 1.132812 -3.507812 -0.03125 -4.03125 C -1.195312 -4.550781 -2.273438 -5.429688 -3.265625 -6.671875 C -4.253906 -7.921875 -4.867188 -9.175781 -5.109375 -10.4375 C -5.347656 -11.695312 -5.25 -12.867188 -4.8125 -13.953125 C -4.382812 -15.046875 -3.664062 -15.992188 -2.65625 -16.796875 C -1.445312 -17.753906 -0.3125 -18.285156 0.75 -18.390625 C 1.820312 -18.503906 2.820312 -18.304688 3.75 -17.796875 L 3.265625 -16.078125 L 3.046875 -15.90625 C 2.242188 -16.28125 1.484375 -16.421875 0.765625 -16.328125 C 0.046875 -16.242188 -0.691406 -15.898438 -1.453125 -15.296875 C -2.160156 -14.734375 -2.648438 -14.070312 -2.921875 -13.3125 C -3.191406 -12.5625 -3.207031 -11.738281 -2.96875 -10.84375 C -2.738281 -9.957031 -2.25 -9.035156 -1.5 -8.078125 C -0.738281 -7.128906 0.046875 -6.441406 0.859375 -6.015625 C 1.679688 -5.597656 2.488281 -5.425781 3.28125 -5.5 C 4.070312 -5.582031 4.820312 -5.90625 5.53125 -6.46875 C 6.320312 -7.09375 6.832031 -7.789062 7.0625 -8.5625 C 7.300781 -9.332031 7.257812 -10.226562 6.9375 -11.25 L 7.15625 -11.421875 L 8.78125 -11.640625 C 9.25 -10.441406 9.316406 -9.265625 8.984375 -8.109375 C 8.660156 -6.953125 7.90625 -5.90625 6.71875 -4.96875 Z M 6.71875 -4.96875 "/>
      </g>
    </g>
  </g>
  <g fill="#613915" fill-opacity="1">
    <g transform="translate(257.50799, 251.525596)">
      <g>
        <path d="M 4.25 -14.84375 L -2.453125 -7.40625 C -1.097656 -6.269531 0.148438 -5.710938 1.296875 -5.734375 C 2.441406 -5.765625 3.472656 -6.289062 4.390625 -7.3125 C 5.078125 -8.082031 5.492188 -8.828125 5.640625 -9.546875 C 5.796875 -10.265625 5.703125 -11.019531 5.359375 -11.8125 L 5.546875 -12.03125 L 7.09375 -12.515625 C 7.59375 -11.492188 7.753906 -10.4375 7.578125 -9.34375 C 7.398438 -8.25 6.8125 -7.144531 5.8125 -6.03125 C 4.875 -4.988281 3.859375 -4.28125 2.765625 -3.90625 C 1.679688 -3.53125 0.535156 -3.515625 -0.671875 -3.859375 C -1.878906 -4.203125 -3.097656 -4.929688 -4.328125 -6.046875 C -5.554688 -7.160156 -6.394531 -8.304688 -6.84375 -9.484375 C -7.300781 -10.671875 -7.398438 -11.820312 -7.140625 -12.9375 C -6.890625 -14.050781 -6.335938 -15.082031 -5.484375 -16.03125 C -4.234375 -17.414062 -2.867188 -18.144531 -1.390625 -18.21875 C 0.078125 -18.300781 1.585938 -17.648438 3.140625 -16.265625 C 3.734375 -15.722656 4.125 -15.347656 4.3125 -15.140625 Z M 1.71875 -14.6875 C 0.539062 -15.707031 -0.523438 -16.207031 -1.484375 -16.1875 C -2.441406 -16.175781 -3.328125 -15.71875 -4.140625 -14.8125 C -4.992188 -13.875 -5.398438 -12.898438 -5.359375 -11.890625 C -5.316406 -10.878906 -4.773438 -9.796875 -3.734375 -8.640625 Z M 1.71875 -14.6875 "/>
      </g>
    </g>
  </g>
</svg>